<svg width="85" height="85" viewBox="0 0 85 85" fill="none" xmlns="http://www.w3.org/2000/svg">
<g filter="url(#filter0_d_58_13)">
<path d="M4 38.5C4 25.9118 4 19.6176 6.21492 14.7121C8.72011 9.16375 13.1637 4.72011 18.7121 2.21492C23.6176 0 29.9118 0 42.5 0C55.0882 0 61.3824 0 66.2879 2.21492C71.8363 4.72011 76.2799 9.16375 78.7851 14.7121C81 19.6176 81 25.9118 81 38.5C81 51.0882 81 57.3824 78.7851 62.2879C76.2799 67.8363 71.8363 72.2799 66.2879 74.7851C61.3824 77 55.0882 77 42.5 77C29.9118 77 23.6176 77 18.7121 74.7851C13.1637 72.2799 8.72011 67.8363 6.21492 62.2879C4 57.3824 4 51.0882 4 38.5Z" fill="#86A1A9"/>
<path d="M4 38.5C4 25.9118 4 19.6176 6.21492 14.7121C8.72011 9.16375 13.1637 4.72011 18.7121 2.21492C23.6176 0 29.9118 0 42.5 0C55.0882 0 61.3824 0 66.2879 2.21492C71.8363 4.72011 76.2799 9.16375 78.7851 14.7121C81 19.6176 81 25.9118 81 38.5C81 51.0882 81 57.3824 78.7851 62.2879C76.2799 67.8363 71.8363 72.2799 66.2879 74.7851C61.3824 77 55.0882 77 42.5 77C29.9118 77 23.6176 77 18.7121 74.7851C13.1637 72.2799 8.72011 67.8363 6.21492 62.2879C4 57.3824 4 51.0882 4 38.5Z" fill="#86A1A9"/>
<path d="M4 38.5C4 25.9118 4 19.6176 6.21492 14.7121C8.72011 9.16375 13.1637 4.72011 18.7121 2.21492C23.6176 0 29.9118 0 42.5 0C55.0882 0 61.3824 0 66.2879 2.21492C71.8363 4.72011 76.2799 9.16375 78.7851 14.7121C81 19.6176 81 25.9118 81 38.5C81 51.0882 81 57.3824 78.7851 62.2879C76.2799 67.8363 71.8363 72.2799 66.2879 74.7851C61.3824 77 55.0882 77 42.5 77C29.9118 77 23.6176 77 18.7121 74.7851C13.1637 72.2799 8.72011 67.8363 6.21492 62.2879C4 57.3824 4 51.0882 4 38.5Z" fill="#A6AABA"/>
</g>
<path d="M41.9343 56.3977C40.2676 56.3977 38.7667 56.0663 37.4315 55.4034C36.0962 54.7405 35.0262 53.8314 34.2212 52.6761C33.4163 51.5208 32.976 50.2045 32.9002 48.7273H36.3093C36.4419 50.0436 37.0385 51.1326 38.0991 51.9943C39.1692 52.8466 40.4476 53.2727 41.9343 53.2727C43.1275 53.2727 44.1881 52.9934 45.1161 52.4347C46.0536 51.8759 46.7875 51.1089 47.3178 50.1335C47.8576 49.1487 48.1275 48.036 48.1275 46.7955C48.1275 45.5265 47.8481 44.3949 47.2894 43.4006C46.7402 42.3968 45.9826 41.6061 45.0167 41.0284C44.0508 40.4508 42.9476 40.1572 41.707 40.1477C40.8169 40.1383 39.9031 40.2756 38.9656 40.5597C38.0281 40.8343 37.2563 41.1894 36.6502 41.625L33.3548 41.2273L35.1161 26.9091H50.2298V30.0341H38.0707L37.0479 38.6136H37.2184C37.815 38.1402 38.5631 37.7472 39.4627 37.4347C40.3623 37.1222 41.2998 36.9659 42.2752 36.9659C44.0555 36.9659 45.6417 37.392 47.0337 38.2443C48.4353 39.0871 49.5337 40.2424 50.3292 41.7102C51.1341 43.178 51.5366 44.8542 51.5366 46.7386C51.5366 48.5947 51.1199 50.2519 50.2866 51.7102C49.4627 53.1591 48.3263 54.3049 46.8775 55.1477C45.4286 55.9811 43.7809 56.3977 41.9343 56.3977Z" fill="white"/>
<defs>
<filter id="filter0_d_58_13" x="0" y="0" width="85" height="85" filterUnits="userSpaceOnUse" color-interpolation-filters="sRGB">
<feFlood flood-opacity="0" result="BackgroundImageFix"/>
<feColorMatrix in="SourceAlpha" type="matrix" values="0 0 0 0 0 0 0 0 0 0 0 0 0 0 0 0 0 0 127 0" result="hardAlpha"/>
<feOffset dy="4"/>
<feGaussianBlur stdDeviation="2"/>
<feComposite in2="hardAlpha" operator="out"/>
<feColorMatrix type="matrix" values="0 0 0 0 0 0 0 0 0 0 0 0 0 0 0 0 0 0 0.25 0"/>
<feBlend mode="normal" in2="BackgroundImageFix" result="effect1_dropShadow_58_13"/>
<feBlend mode="normal" in="SourceGraphic" in2="effect1_dropShadow_58_13" result="shape"/>
</filter>
</defs>
</svg>
