<svg width="85" height="85" viewBox="0 0 85 85" fill="none" xmlns="http://www.w3.org/2000/svg">
<g filter="url(#filter0_d_58_9)">
<path d="M4 38.5C4 25.9118 4 19.6176 6.21492 14.7121C8.72011 9.16375 13.1637 4.72011 18.7121 2.21492C23.6176 0 29.9118 0 42.5 0C55.0882 0 61.3824 0 66.2879 2.21492C71.8363 4.72011 76.2799 9.16375 78.7851 14.7121C81 19.6176 81 25.9118 81 38.5C81 51.0882 81 57.3824 78.7851 62.2879C76.2799 67.8363 71.8363 72.2799 66.2879 74.7851C61.3824 77 55.0882 77 42.5 77C29.9118 77 23.6176 77 18.7121 74.7851C13.1637 72.2799 8.72011 67.8363 6.21492 62.2879C4 57.3824 4 51.0882 4 38.5Z" fill="#86A1A9"/>
<path d="M4 38.5C4 25.9118 4 19.6176 6.21492 14.7121C8.72011 9.16375 13.1637 4.72011 18.7121 2.21492C23.6176 0 29.9118 0 42.5 0C55.0882 0 61.3824 0 66.2879 2.21492C71.8363 4.72011 76.2799 9.16375 78.7851 14.7121C81 19.6176 81 25.9118 81 38.5C81 51.0882 81 57.3824 78.7851 62.2879C76.2799 67.8363 71.8363 72.2799 66.2879 74.7851C61.3824 77 55.0882 77 42.5 77C29.9118 77 23.6176 77 18.7121 74.7851C13.1637 72.2799 8.72011 67.8363 6.21492 62.2879C4 57.3824 4 51.0882 4 38.5Z" fill="#86A1A9"/>
<path d="M4 38.5C4 25.9118 4 19.6176 6.21492 14.7121C8.72011 9.16375 13.1637 4.72011 18.7121 2.21492C23.6176 0 29.9118 0 42.5 0C55.0882 0 61.3824 0 66.2879 2.21492C71.8363 4.72011 76.2799 9.16375 78.7851 14.7121C81 19.6176 81 25.9118 81 38.5C81 51.0882 81 57.3824 78.7851 62.2879C76.2799 67.8363 71.8363 72.2799 66.2879 74.7851C61.3824 77 55.0882 77 42.5 77C29.9118 77 23.6176 77 18.7121 74.7851C13.1637 72.2799 8.72011 67.8363 6.21492 62.2879C4 57.3824 4 51.0882 4 38.5Z" fill="#A6AABA"/>
</g>
<path d="M42.0053 53.3977C40.0546 53.3977 38.3311 53.0521 36.8349 52.3608C35.3481 51.66 34.1881 50.6989 33.3548 49.4773C32.5214 48.2462 32.1095 46.8447 32.119 45.2727C32.1095 44.0417 32.351 42.9053 32.8434 41.8636C33.3358 40.8125 34.0082 39.9366 34.8604 39.2358C35.7222 38.5256 36.6834 38.0758 37.744 37.8864V37.7159C36.3519 37.3561 35.244 36.5748 34.4201 35.3722C33.5962 34.16 33.189 32.7822 33.1985 31.2386C33.189 29.7614 33.5631 28.4403 34.3207 27.2756C35.0782 26.1108 36.1199 25.1922 37.4457 24.5199C38.7809 23.8475 40.3008 23.5114 42.0053 23.5114C43.6909 23.5114 45.1966 23.8475 46.5224 24.5199C47.8481 25.1922 48.8898 26.1108 49.6474 27.2756C50.4144 28.4403 50.8027 29.7614 50.8121 31.2386C50.8027 32.7822 50.3813 34.16 49.5479 35.3722C48.7241 36.5748 47.6303 37.3561 46.2667 37.7159V37.8864C47.3178 38.0758 48.2648 38.5256 49.1076 39.2358C49.9504 39.9366 50.6228 40.8125 51.1246 41.8636C51.6265 42.9053 51.8822 44.0417 51.8917 45.2727C51.8822 46.8447 51.4561 48.2462 50.6133 49.4773C49.7799 50.6989 48.6199 51.66 47.1332 52.3608C45.6559 53.0521 43.9466 53.3977 42.0053 53.3977ZM42.0053 50.2727C43.3216 50.2727 44.458 50.0597 45.4144 49.6335C46.3709 49.2074 47.1095 48.6061 47.6303 47.8295C48.1512 47.053 48.4163 46.1439 48.4258 45.1023C48.4163 44.0038 48.1322 43.0331 47.5735 42.1903C47.0148 41.3475 46.2525 40.6847 45.2866 40.2017C44.3301 39.7187 43.2364 39.4773 42.0053 39.4773C40.7648 39.4773 39.6568 39.7187 38.6815 40.2017C37.7156 40.6847 36.9532 41.3475 36.3945 42.1903C35.8453 43.0331 35.5754 44.0038 35.5849 45.1023C35.5754 46.1439 35.8263 47.053 36.3377 47.8295C36.8585 48.6061 37.6019 49.2074 38.5678 49.6335C39.5337 50.0597 40.6796 50.2727 42.0053 50.2727ZM42.0053 36.4659C43.047 36.4659 43.9703 36.2576 44.7752 35.8409C45.5896 35.4242 46.2288 34.8419 46.6928 34.0938C47.1568 33.3456 47.3936 32.4697 47.4031 31.4659C47.3936 30.4811 47.1616 29.6241 46.707 28.8949C46.2525 28.1562 45.6228 27.5881 44.8178 27.1903C44.0129 26.7831 43.0754 26.5795 42.0053 26.5795C40.9163 26.5795 39.9646 26.7831 39.1502 27.1903C38.3358 27.5881 37.7061 28.1562 37.261 28.8949C36.8159 29.6241 36.5981 30.4811 36.6076 31.4659C36.5981 32.4697 36.8207 33.3456 37.2752 34.0938C37.7392 34.8419 38.3784 35.4242 39.1928 35.8409C40.0072 36.2576 40.9447 36.4659 42.0053 36.4659Z" fill="white"/>
<defs>
<filter id="filter0_d_58_9" x="0" y="0" width="85" height="85" filterUnits="userSpaceOnUse" color-interpolation-filters="sRGB">
<feFlood flood-opacity="0" result="BackgroundImageFix"/>
<feColorMatrix in="SourceAlpha" type="matrix" values="0 0 0 0 0 0 0 0 0 0 0 0 0 0 0 0 0 0 127 0" result="hardAlpha"/>
<feOffset dy="4"/>
<feGaussianBlur stdDeviation="2"/>
<feComposite in2="hardAlpha" operator="out"/>
<feColorMatrix type="matrix" values="0 0 0 0 0 0 0 0 0 0 0 0 0 0 0 0 0 0 0.25 0"/>
<feBlend mode="normal" in2="BackgroundImageFix" result="effect1_dropShadow_58_9"/>
<feBlend mode="normal" in="SourceGraphic" in2="effect1_dropShadow_58_9" result="shape"/>
</filter>
</defs>
</svg>
