<svg width="85" height="85" viewBox="0 0 85 85" fill="none" xmlns="http://www.w3.org/2000/svg">
<g filter="url(#filter0_d_58_10)">
<path d="M4 38.5C4 25.9118 4 19.6176 6.21492 14.7121C8.72011 9.16375 13.1637 4.72011 18.7121 2.21492C23.6176 0 29.9118 0 42.5 0C55.0882 0 61.3824 0 66.2879 2.21492C71.8363 4.72011 76.2799 9.16375 78.7851 14.7121C81 19.6176 81 25.9118 81 38.5C81 51.0882 81 57.3824 78.7851 62.2879C76.2799 67.8363 71.8363 72.2799 66.2879 74.7851C61.3824 77 55.0882 77 42.5 77C29.9118 77 23.6176 77 18.7121 74.7851C13.1637 72.2799 8.72011 67.8363 6.21492 62.2879C4 57.3824 4 51.0882 4 38.5Z" fill="#816384"/>
<path d="M4 38.5C4 25.9118 4 19.6176 6.21492 14.7121C8.72011 9.16375 13.1637 4.72011 18.7121 2.21492C23.6176 0 29.9118 0 42.5 0C55.0882 0 61.3824 0 66.2879 2.21492C71.8363 4.72011 76.2799 9.16375 78.7851 14.7121C81 19.6176 81 25.9118 81 38.5C81 51.0882 81 57.3824 78.7851 62.2879C76.2799 67.8363 71.8363 72.2799 66.2879 74.7851C61.3824 77 55.0882 77 42.5 77C29.9118 77 23.6176 77 18.7121 74.7851C13.1637 72.2799 8.72011 67.8363 6.21492 62.2879C4 57.3824 4 51.0882 4 38.5Z" fill="#816384"/>
<path d="M4 38.5C4 25.9118 4 19.6176 6.21492 14.7121C8.72011 9.16375 13.1637 4.72011 18.7121 2.21492C23.6176 0 29.9118 0 42.5 0C55.0882 0 61.3824 0 66.2879 2.21492C71.8363 4.72011 76.2799 9.16375 78.7851 14.7121C81 19.6176 81 25.9118 81 38.5C81 51.0882 81 57.3824 78.7851 62.2879C76.2799 67.8363 71.8363 72.2799 66.2879 74.7851C61.3824 77 55.0882 77 42.5 77C29.9118 77 23.6176 77 18.7121 74.7851C13.1637 72.2799 8.72011 67.8363 6.21492 62.2879C4 57.3824 4 51.0882 4 38.5Z" fill="#A6AABA"/>
</g>
<path d="M40.7923 23.5114C41.9854 23.5208 43.1786 23.7481 44.3718 24.1932C45.565 24.6383 46.654 25.3769 47.6388 26.4091C48.6237 27.4318 49.4144 28.8286 50.011 30.5994C50.6076 32.3703 50.9059 34.5909 50.9059 37.2614C50.9059 39.8466 50.6597 42.143 50.1673 44.1506C49.6843 46.1487 48.9835 47.8343 48.065 49.2074C47.1559 50.5805 46.0479 51.6222 44.7411 52.3324C43.4438 53.0426 41.976 53.3977 40.3377 53.3977C38.7089 53.3977 37.2553 53.0758 35.9769 52.4318C34.708 51.7784 33.6663 50.8741 32.8519 49.7188C32.047 48.554 31.5309 47.2045 31.3036 45.6705H34.7695C35.082 47.0057 35.7023 48.1089 36.6303 48.9801C37.5678 49.8419 38.8036 50.2727 40.3377 50.2727C42.582 50.2727 44.3529 49.2926 45.6502 47.3324C46.957 45.3722 47.6104 42.6023 47.6104 39.0227H47.3832C46.8529 39.8182 46.2231 40.5047 45.494 41.0824C44.7648 41.66 43.9551 42.1051 43.065 42.4176C42.1748 42.7301 41.2279 42.8864 40.2241 42.8864C38.5574 42.8864 37.0281 42.4744 35.636 41.6506C34.2534 40.8172 33.1455 39.6761 32.3121 38.2273C31.4883 36.7689 31.0763 35.1023 31.0763 33.2273C31.0763 31.447 31.4741 29.8182 32.2695 28.3409C33.0745 26.8542 34.2013 25.6705 35.6502 24.7898C37.1085 23.9091 38.8226 23.483 40.7923 23.5114ZM40.7923 26.6364C39.5991 26.6364 38.5243 26.9347 37.5678 27.5312C36.6209 28.1184 35.868 28.9138 35.3093 29.9176C34.7601 30.9119 34.4854 32.0152 34.4854 33.2273C34.4854 34.4394 34.7506 35.5426 35.2809 36.5369C35.8207 37.5218 36.5546 38.3078 37.4826 38.8949C38.4201 39.4725 39.4854 39.7614 40.6786 39.7614C41.5782 39.7614 42.4163 39.5862 43.1928 39.2358C43.9693 38.8759 44.6464 38.3883 45.2241 37.7727C45.8112 37.1477 46.2705 36.4422 46.6019 35.6562C46.9334 34.8608 47.0991 34.0322 47.0991 33.1705C47.0991 32.0341 46.8245 30.9687 46.2752 29.9744C45.7354 28.9801 44.9873 28.1752 44.0309 27.5597C43.0839 26.9441 42.0044 26.6364 40.7923 26.6364Z" fill="white"/>
<defs>
<filter id="filter0_d_58_10" x="0" y="0" width="85" height="85" filterUnits="userSpaceOnUse" color-interpolation-filters="sRGB">
<feFlood flood-opacity="0" result="BackgroundImageFix"/>
<feColorMatrix in="SourceAlpha" type="matrix" values="0 0 0 0 0 0 0 0 0 0 0 0 0 0 0 0 0 0 127 0" result="hardAlpha"/>
<feOffset dy="4"/>
<feGaussianBlur stdDeviation="2"/>
<feComposite in2="hardAlpha" operator="out"/>
<feColorMatrix type="matrix" values="0 0 0 0 0 0 0 0 0 0 0 0 0 0 0 0 0 0 0.25 0"/>
<feBlend mode="normal" in2="BackgroundImageFix" result="effect1_dropShadow_58_10"/>
<feBlend mode="normal" in="SourceGraphic" in2="effect1_dropShadow_58_10" result="shape"/>
</filter>
</defs>
</svg>
