<svg width="85" height="85" viewBox="0 0 85 85" fill="none" xmlns="http://www.w3.org/2000/svg">
<g filter="url(#filter0_d_58_7)">
<path d="M4 38.5C4 25.9118 4 19.6176 6.21492 14.7121C8.72011 9.16375 13.1637 4.72011 18.7121 2.21492C23.6176 0 29.9118 0 42.5 0C55.0882 0 61.3824 0 66.2879 2.21492C71.8363 4.72011 76.2799 9.16375 78.7851 14.7121C81 19.6176 81 25.9118 81 38.5C81 51.0882 81 57.3824 78.7851 62.2879C76.2799 67.8363 71.8363 72.2799 66.2879 74.7851C61.3824 77 55.0882 77 42.5 77C29.9118 77 23.6176 77 18.7121 74.7851C13.1637 72.2799 8.72011 67.8363 6.21492 62.2879C4 57.3824 4 51.0882 4 38.5Z" fill="#86A1A9"/>
<path d="M4 38.5C4 25.9118 4 19.6176 6.21492 14.7121C8.72011 9.16375 13.1637 4.72011 18.7121 2.21492C23.6176 0 29.9118 0 42.5 0C55.0882 0 61.3824 0 66.2879 2.21492C71.8363 4.72011 76.2799 9.16375 78.7851 14.7121C81 19.6176 81 25.9118 81 38.5C81 51.0882 81 57.3824 78.7851 62.2879C76.2799 67.8363 71.8363 72.2799 66.2879 74.7851C61.3824 77 55.0882 77 42.5 77C29.9118 77 23.6176 77 18.7121 74.7851C13.1637 72.2799 8.72011 67.8363 6.21492 62.2879C4 57.3824 4 51.0882 4 38.5Z" fill="#86A1A9"/>
<path d="M4 38.5C4 25.9118 4 19.6176 6.21492 14.7121C8.72011 9.16375 13.1637 4.72011 18.7121 2.21492C23.6176 0 29.9118 0 42.5 0C55.0882 0 61.3824 0 66.2879 2.21492C71.8363 4.72011 76.2799 9.16375 78.7851 14.7121C81 19.6176 81 25.9118 81 38.5C81 51.0882 81 57.3824 78.7851 62.2879C76.2799 67.8363 71.8363 72.2799 66.2879 74.7851C61.3824 77 55.0882 77 42.5 77C29.9118 77 23.6176 77 18.7121 74.7851C13.1637 72.2799 8.72011 67.8363 6.21492 62.2879C4 57.3824 4 51.0882 4 38.5Z" fill="#79A7B5"/>
</g>
<path d="M52.7573 39.2969V35H35.2573V39.2969H52.7573Z" fill="#040404"/>
<path d="M47 29.5C47 30.8807 45.8807 32 44.5 32C43.1193 32 42 30.8807 42 29.5C42 28.1193 43.1193 27 44.5 27C45.8807 27 47 28.1193 47 29.5Z" fill="black"/>
<path d="M47 43.5C47 44.8807 45.8807 46 44.5 46C43.1193 46 42 44.8807 42 43.5C42 42.1193 43.1193 41 44.5 41C45.8807 41 47 42.1193 47 43.5Z" fill="black"/>
<defs>
<filter id="filter0_d_58_7" x="0" y="0" width="85" height="85" filterUnits="userSpaceOnUse" color-interpolation-filters="sRGB">
<feFlood flood-opacity="0" result="BackgroundImageFix"/>
<feColorMatrix in="SourceAlpha" type="matrix" values="0 0 0 0 0 0 0 0 0 0 0 0 0 0 0 0 0 0 127 0" result="hardAlpha"/>
<feOffset dy="4"/>
<feGaussianBlur stdDeviation="2"/>
<feComposite in2="hardAlpha" operator="out"/>
<feColorMatrix type="matrix" values="0 0 0 0 0 0 0 0 0 0 0 0 0 0 0 0 0 0 0.25 0"/>
<feBlend mode="normal" in2="BackgroundImageFix" result="effect1_dropShadow_58_7"/>
<feBlend mode="normal" in="SourceGraphic" in2="effect1_dropShadow_58_7" result="shape"/>
</filter>
</defs>
</svg>
