<svg width="74" height="31" viewBox="0 0 74 31" fill="none" xmlns="http://www.w3.org/2000/svg">
<g filter="url(#filter0_b_58_2)">
<rect width="74" height="31" rx="15.5" fill="#A6AABA"/>
</g>
<ellipse cx="57" cy="15.5" rx="13" ry="13.5" fill="#C2C9E0"/>
<path d="M18.5 12.6285C19.0686 12.6285 19.6245 12.7972 20.0973 13.1131C20.5701 13.429 20.9386 13.878 21.1562 14.4033C21.3738 14.9287 21.4307 15.5067 21.3198 16.0644C21.2088 16.6221 20.935 17.1344 20.5329 17.5365C20.1309 17.9385 19.6186 18.2124 19.0609 18.3233C18.5032 18.4342 17.9251 18.3773 17.3998 18.1597C16.8744 17.9421 16.4254 17.5736 16.1095 17.1008C15.7936 16.628 15.625 16.0722 15.625 15.5035C15.626 14.7413 15.9292 14.0106 16.4681 13.4717C17.0071 12.9327 17.7378 12.6295 18.5 12.6285ZM18.5 11.191C17.6471 11.191 16.8133 11.444 16.1041 11.9178C15.3949 12.3917 14.8422 13.0652 14.5158 13.8532C14.1894 14.6412 14.104 15.5083 14.2704 16.3449C14.4368 17.1814 14.8475 17.9498 15.4506 18.5529C16.0537 19.1561 16.8221 19.5668 17.6587 19.7332C18.4952 19.8996 19.3623 19.8142 20.1503 19.4878C20.9383 19.1614 21.6118 18.6086 22.0857 17.8994C22.5596 17.1902 22.8125 16.3565 22.8125 15.5035C22.8125 14.3598 22.3581 13.2629 21.5494 12.4541C20.7406 11.6454 19.6437 11.191 18.5 11.191ZM10.8769 8.89679L11.8947 7.88048L14.4139 10.4004L13.3969 11.4167L10.8769 8.89679ZM8.4375 14.7848H12.0312V16.2223H8.4375V14.7848ZM10.8769 22.111L13.3969 19.5911L14.4132 20.6074L11.894 23.1273L10.8769 22.111ZM17.7812 21.9723H19.2188V25.566H17.7812V21.9723ZM22.5875 20.6067L23.6038 19.5904L26.1238 22.1103L25.1075 23.1266L22.5875 20.6067ZM24.9688 14.7848H28.5625V16.2223H24.9688V14.7848ZM22.5875 10.3997L25.1075 7.87976L26.1238 8.89607L23.6038 11.416L22.5875 10.3997ZM17.7812 5.44104H19.2188V9.03479H17.7812V5.44104Z" fill="#3542B1"/>
<defs>
<filter id="filter0_b_58_2" x="-4" y="-4" width="82" height="39" filterUnits="userSpaceOnUse" color-interpolation-filters="sRGB">
<feFlood flood-opacity="0" result="BackgroundImageFix"/>
<feGaussianBlur in="BackgroundImage" stdDeviation="2"/>
<feComposite in2="SourceAlpha" operator="in" result="effect1_backgroundBlur_58_2"/>
<feBlend mode="normal" in="SourceGraphic" in2="effect1_backgroundBlur_58_2" result="shape"/>
</filter>
</defs>
</svg>
