<svg width="85" height="85" viewBox="0 0 85 85" fill="none" xmlns="http://www.w3.org/2000/svg">
<g filter="url(#filter0_d_58_6)">
<path d="M4 38.5C4 25.9118 4 19.6176 6.21492 14.7121C8.72011 9.16375 13.1637 4.72011 18.7121 2.21492C23.6176 0 29.9118 0 42.5 0C55.0882 0 61.3824 0 66.2879 2.21492C71.8363 4.72011 76.2799 9.16375 78.7851 14.7121C81 19.6176 81 25.9118 81 38.5C81 51.0882 81 57.3824 78.7851 62.2879C76.2799 67.8363 71.8363 72.2799 66.2879 74.7851C61.3824 77 55.0882 77 42.5 77C29.9118 77 23.6176 77 18.7121 74.7851C13.1637 72.2799 8.72011 67.8363 6.21492 62.2879C4 57.3824 4 51.0882 4 38.5Z" fill="#86A1A9"/>
<path d="M4 38.5C4 25.9118 4 19.6176 6.21492 14.7121C8.72011 9.16375 13.1637 4.72011 18.7121 2.21492C23.6176 0 29.9118 0 42.5 0C55.0882 0 61.3824 0 66.2879 2.21492C71.8363 4.72011 76.2799 9.16375 78.7851 14.7121C81 19.6176 81 25.9118 81 38.5C81 51.0882 81 57.3824 78.7851 62.2879C76.2799 67.8363 71.8363 72.2799 66.2879 74.7851C61.3824 77 55.0882 77 42.5 77C29.9118 77 23.6176 77 18.7121 74.7851C13.1637 72.2799 8.72011 67.8363 6.21492 62.2879C4 57.3824 4 51.0882 4 38.5Z" fill="#86A1A9"/>
<path d="M4 38.5C4 25.9118 4 19.6176 6.21492 14.7121C8.72011 9.16375 13.1637 4.72011 18.7121 2.21492C23.6176 0 29.9118 0 42.5 0C55.0882 0 61.3824 0 66.2879 2.21492C71.8363 4.72011 76.2799 9.16375 78.7851 14.7121C81 19.6176 81 25.9118 81 38.5C81 51.0882 81 57.3824 78.7851 62.2879C76.2799 67.8363 71.8363 72.2799 66.2879 74.7851C61.3824 77 55.0882 77 42.5 77C29.9118 77 23.6176 77 18.7121 74.7851C13.1637 72.2799 8.72011 67.8363 6.21492 62.2879C4 57.3824 4 51.0882 4 38.5Z" fill="#C2C9E0"/>
</g>
<path d="M43.6932 46.9091V45.7585C43.6932 44.9631 43.8565 44.2351 44.1832 43.5746C44.517 42.907 45 42.3743 45.6321 41.9766C46.2713 41.5717 47.0455 41.3693 47.9545 41.3693C48.8778 41.3693 49.652 41.5717 50.277 41.9766C50.902 42.3743 51.3743 42.907 51.6939 43.5746C52.0135 44.2351 52.1733 44.9631 52.1733 45.7585V46.9091C52.1733 47.7045 52.0099 48.4361 51.6832 49.1037C51.3636 49.7642 50.8878 50.2969 50.2557 50.7017C49.6307 51.0994 48.8636 51.2983 47.9545 51.2983C47.0313 51.2983 46.2536 51.0994 45.6214 50.7017C44.9893 50.2969 44.5099 49.7642 44.1832 49.1037C43.8565 48.4361 43.6932 47.7045 43.6932 46.9091ZM45.8665 45.7585V46.9091C45.8665 47.5696 46.0227 48.1626 46.3352 48.6882C46.6477 49.2067 47.1875 49.4659 47.9545 49.4659C48.7003 49.4659 49.2259 49.2067 49.5312 48.6882C49.8438 48.1626 50 47.5696 50 46.9091V45.7585C50 45.098 49.8509 44.5085 49.5526 43.9901C49.2543 43.4645 48.7216 43.2017 47.9545 43.2017C47.2088 43.2017 46.6726 43.4645 46.3459 43.9901C46.0263 44.5085 45.8665 45.098 45.8665 45.7585ZM32.8267 34.4233V33.2727C32.8267 32.4773 32.9901 31.7493 33.3168 31.0888C33.6506 30.4212 34.1335 29.8885 34.7656 29.4908C35.4048 29.0859 36.179 28.8835 37.0881 28.8835C38.0114 28.8835 38.7855 29.0859 39.4105 29.4908C40.0355 29.8885 40.5078 30.4212 40.8274 31.0888C41.147 31.7493 41.3068 32.4773 41.3068 33.2727V34.4233C41.3068 35.2187 41.1435 35.9503 40.8168 36.6179C40.4972 37.2784 40.0213 37.8111 39.3892 38.2159C38.7642 38.6136 37.9972 38.8125 37.0881 38.8125C36.1648 38.8125 35.3871 38.6136 34.755 38.2159C34.1229 37.8111 33.6435 37.2784 33.3168 36.6179C32.9901 35.9503 32.8267 35.2187 32.8267 34.4233ZM35 33.2727V34.4233C35 35.0838 35.1562 35.6768 35.4688 36.2024C35.7812 36.7209 36.321 36.9801 37.0881 36.9801C37.8338 36.9801 38.3594 36.7209 38.6648 36.2024C38.9773 35.6768 39.1335 35.0838 39.1335 34.4233V33.2727C39.1335 32.6122 38.9844 32.0227 38.6861 31.5043C38.3878 30.9787 37.8551 30.7159 37.0881 30.7159C36.3423 30.7159 35.8061 30.9787 35.4794 31.5043C35.1598 32.0227 35 32.6122 35 33.2727ZM33.6364 51L48.6364 29.1818H51.0653L36.0653 51H33.6364Z" fill="black"/>
<defs>
<filter id="filter0_d_58_6" x="0" y="0" width="85" height="85" filterUnits="userSpaceOnUse" color-interpolation-filters="sRGB">
<feFlood flood-opacity="0" result="BackgroundImageFix"/>
<feColorMatrix in="SourceAlpha" type="matrix" values="0 0 0 0 0 0 0 0 0 0 0 0 0 0 0 0 0 0 127 0" result="hardAlpha"/>
<feOffset dy="4"/>
<feGaussianBlur stdDeviation="2"/>
<feComposite in2="hardAlpha" operator="out"/>
<feColorMatrix type="matrix" values="0 0 0 0 0 0 0 0 0 0 0 0 0 0 0 0 0 0 0.25 0"/>
<feBlend mode="normal" in2="BackgroundImageFix" result="effect1_dropShadow_58_6"/>
<feBlend mode="normal" in="SourceGraphic" in2="effect1_dropShadow_58_6" result="shape"/>
</filter>
</defs>
</svg>
