<svg width="85" height="85" viewBox="0 0 85 85" fill="none" xmlns="http://www.w3.org/2000/svg">
<g filter="url(#filter0_d_51_2)">
<path d="M4 38.5C4 25.9118 4 19.6176 6.21492 14.7121C8.72011 9.16375 13.1637 4.72011 18.7121 2.21492C23.6176 0 29.9118 0 42.5 0C55.0882 0 61.3824 0 66.2879 2.21492C71.8363 4.72011 76.2799 9.16375 78.7851 14.7121C81 19.6176 81 25.9118 81 38.5C81 51.0882 81 57.3824 78.7851 62.2879C76.2799 67.8363 71.8363 72.2799 66.2879 74.7851C61.3824 77 55.0882 77 42.5 77C29.9118 77 23.6176 77 18.7121 74.7851C13.1637 72.2799 8.72011 67.8363 6.21492 62.2879C4 57.3824 4 51.0882 4 38.5Z" fill="#816384"/>
<path d="M4 38.5C4 25.9118 4 19.6176 6.21492 14.7121C8.72011 9.16375 13.1637 4.72011 18.7121 2.21492C23.6176 0 29.9118 0 42.5 0C55.0882 0 61.3824 0 66.2879 2.21492C71.8363 4.72011 76.2799 9.16375 78.7851 14.7121C81 19.6176 81 25.9118 81 38.5C81 51.0882 81 57.3824 78.7851 62.2879C76.2799 67.8363 71.8363 72.2799 66.2879 74.7851C61.3824 77 55.0882 77 42.5 77C29.9118 77 23.6176 77 18.7121 74.7851C13.1637 72.2799 8.72011 67.8363 6.21492 62.2879C4 57.3824 4 51.0882 4 38.5Z" fill="#816384"/>
<path d="M4 38.5C4 25.9118 4 19.6176 6.21492 14.7121C8.72011 9.16375 13.1637 4.72011 18.7121 2.21492C23.6176 0 29.9118 0 42.5 0C55.0882 0 61.3824 0 66.2879 2.21492C71.8363 4.72011 76.2799 9.16375 78.7851 14.7121C81 19.6176 81 25.9118 81 38.5C81 51.0882 81 57.3824 78.7851 62.2879C76.2799 67.8363 71.8363 72.2799 66.2879 74.7851C61.3824 77 55.0882 77 42.5 77C29.9118 77 23.6176 77 18.7121 74.7851C13.1637 72.2799 8.72011 67.8363 6.21492 62.2879C4 57.3824 4 51.0882 4 38.5Z" fill="#926EB6"/>
</g>
<path d="M41 52.3977C38.8598 52.3977 37.0369 51.8153 35.5312 50.6506C34.0256 49.4763 32.875 47.7765 32.0795 45.5511C31.2841 43.3163 30.8864 40.6174 30.8864 37.4545C30.8864 34.3106 31.2841 31.6259 32.0795 29.4006C32.8845 27.1657 34.0398 25.4612 35.5455 24.2869C37.0606 23.1032 38.8788 22.5114 41 22.5114C43.1212 22.5114 44.9347 23.1032 46.4403 24.2869C47.9555 25.4612 49.1108 27.1657 49.9062 29.4006C50.7112 31.6259 51.1136 34.3106 51.1136 37.4545C51.1136 40.6174 50.7159 43.3163 49.9205 45.5511C49.125 47.7765 47.9744 49.4763 46.4688 50.6506C44.9631 51.8153 43.1402 52.3977 41 52.3977ZM41 49.2727C43.1212 49.2727 44.7689 48.25 45.9432 46.2045C47.1174 44.1591 47.7045 41.2424 47.7045 37.4545C47.7045 34.9356 47.4347 32.7907 46.8949 31.0199C46.3646 29.2491 45.5975 27.8996 44.5938 26.9716C43.5994 26.0436 42.4015 25.5795 41 25.5795C38.8977 25.5795 37.2547 26.6165 36.071 28.6903C34.8873 30.7547 34.2955 33.6761 34.2955 37.4545C34.2955 39.9735 34.5606 42.1136 35.0909 43.875C35.6212 45.6364 36.3835 46.9763 37.3778 47.8949C38.3816 48.8134 39.589 49.2727 41 49.2727Z" fill="white"/>
<defs>
<filter id="filter0_d_51_2" x="0" y="0" width="85" height="85" filterUnits="userSpaceOnUse" color-interpolation-filters="sRGB">
<feFlood flood-opacity="0" result="BackgroundImageFix"/>
<feColorMatrix in="SourceAlpha" type="matrix" values="0 0 0 0 0 0 0 0 0 0 0 0 0 0 0 0 0 0 127 0" result="hardAlpha"/>
<feOffset dy="4"/>
<feGaussianBlur stdDeviation="2"/>
<feComposite in2="hardAlpha" operator="out"/>
<feColorMatrix type="matrix" values="0 0 0 0 0 0 0 0 0 0 0 0 0 0 0 0 0 0 0.25 0"/>
<feBlend mode="normal" in2="BackgroundImageFix" result="effect1_dropShadow_51_2"/>
<feBlend mode="normal" in="SourceGraphic" in2="effect1_dropShadow_51_2" result="shape"/>
</filter>
</defs>
</svg>
