<svg width="85" height="85" viewBox="0 0 85 85" fill="none" xmlns="http://www.w3.org/2000/svg">
<g filter="url(#filter0_d_47_9)">
<path d="M4 38.5C4 25.9118 4 19.6176 6.21492 14.7121C8.72011 9.16375 13.1637 4.72011 18.7121 2.21492C23.6176 0 29.9118 0 42.5 0C55.0882 0 61.3824 0 66.2879 2.21492C71.8363 4.72011 76.2799 9.16375 78.7851 14.7121C81 19.6176 81 25.9118 81 38.5C81 51.0882 81 57.3824 78.7851 62.2879C76.2799 67.8363 71.8363 72.2799 66.2879 74.7851C61.3824 77 55.0882 77 42.5 77C29.9118 77 23.6176 77 18.7121 74.7851C13.1637 72.2799 8.72011 67.8363 6.21492 62.2879C4 57.3824 4 51.0882 4 38.5Z" fill="#816384"/>
<path d="M4 38.5C4 25.9118 4 19.6176 6.21492 14.7121C8.72011 9.16375 13.1637 4.72011 18.7121 2.21492C23.6176 0 29.9118 0 42.5 0C55.0882 0 61.3824 0 66.2879 2.21492C71.8363 4.72011 76.2799 9.16375 78.7851 14.7121C81 19.6176 81 25.9118 81 38.5C81 51.0882 81 57.3824 78.7851 62.2879C76.2799 67.8363 71.8363 72.2799 66.2879 74.7851C61.3824 77 55.0882 77 42.5 77C29.9118 77 23.6176 77 18.7121 74.7851C13.1637 72.2799 8.72011 67.8363 6.21492 62.2879C4 57.3824 4 51.0882 4 38.5Z" fill="#816384"/>
<path d="M4 38.5C4 25.9118 4 19.6176 6.21492 14.7121C8.72011 9.16375 13.1637 4.72011 18.7121 2.21492C23.6176 0 29.9118 0 42.5 0C55.0882 0 61.3824 0 66.2879 2.21492C71.8363 4.72011 76.2799 9.16375 78.7851 14.7121C81 19.6176 81 25.9118 81 38.5C81 51.0882 81 57.3824 78.7851 62.2879C76.2799 67.8363 71.8363 72.2799 66.2879 74.7851C61.3824 77 55.0882 77 42.5 77C29.9118 77 23.6176 77 18.7121 74.7851C13.1637 72.2799 8.72011 67.8363 6.21492 62.2879C4 57.3824 4 51.0882 4 38.5Z" fill="#926EB6"/>
</g>
<path d="M33.902 57V54.4432L43.5043 43.9318C44.6312 42.7008 45.5592 41.6307 46.2884 40.7216C47.0175 39.803 47.5573 38.9413 47.9077 38.1364C48.2675 37.322 48.4474 36.4697 48.4474 35.5795C48.4474 34.5568 48.2012 33.6714 47.7088 32.9233C47.2259 32.1752 46.563 31.5975 45.7202 31.1903C44.8774 30.7831 43.9304 30.5795 42.8793 30.5795C41.7618 30.5795 40.7865 30.8116 39.9531 31.2756C39.1293 31.7301 38.4901 32.3693 38.0355 33.1932C37.5904 34.017 37.3679 34.983 37.3679 36.0909H34.0156C34.0156 34.3864 34.4086 32.8902 35.1946 31.6023C35.9806 30.3144 37.0507 29.3106 38.4048 28.5909C39.7685 27.8712 41.2978 27.5114 42.9929 27.5114C44.6974 27.5114 46.2079 27.8712 47.5241 28.5909C48.8404 29.3106 49.8726 30.2812 50.6207 31.5028C51.3688 32.7244 51.7429 34.0833 51.7429 35.5795C51.7429 36.6496 51.5488 37.696 51.1605 38.7188C50.7817 39.732 50.1188 40.8636 49.1719 42.1136C48.2344 43.3542 46.9323 44.8693 45.2656 46.6591L38.7315 53.6477V53.875H52.2543V57H33.902Z" fill="white"/>
<defs>
<filter id="filter0_d_47_9" x="0" y="0" width="85" height="85" filterUnits="userSpaceOnUse" color-interpolation-filters="sRGB">
<feFlood flood-opacity="0" result="BackgroundImageFix"/>
<feColorMatrix in="SourceAlpha" type="matrix" values="0 0 0 0 0 0 0 0 0 0 0 0 0 0 0 0 0 0 127 0" result="hardAlpha"/>
<feOffset dy="4"/>
<feGaussianBlur stdDeviation="2"/>
<feComposite in2="hardAlpha" operator="out"/>
<feColorMatrix type="matrix" values="0 0 0 0 0 0 0 0 0 0 0 0 0 0 0 0 0 0 0.25 0"/>
<feBlend mode="normal" in2="BackgroundImageFix" result="effect1_dropShadow_47_9"/>
<feBlend mode="normal" in="SourceGraphic" in2="effect1_dropShadow_47_9" result="shape"/>
</filter>
</defs>
</svg>
