<svg width="85" height="85" viewBox="0 0 85 85" fill="none" xmlns="http://www.w3.org/2000/svg">
<g filter="url(#filter0_d_47_10)">
<path d="M4 38.5C4 25.9118 4 19.6176 6.21492 14.7121C8.72011 9.16375 13.1637 4.72011 18.7121 2.21492C23.6176 0 29.9118 0 42.5 0C55.0882 0 61.3824 0 66.2879 2.21492C71.8363 4.72011 76.2799 9.16375 78.7851 14.7121C81 19.6176 81 25.9118 81 38.5C81 51.0882 81 57.3824 78.7851 62.2879C76.2799 67.8363 71.8363 72.2799 66.2879 74.7851C61.3824 77 55.0882 77 42.5 77C29.9118 77 23.6176 77 18.7121 74.7851C13.1637 72.2799 8.72011 67.8363 6.21492 62.2879C4 57.3824 4 51.0882 4 38.5Z" fill="#816384"/>
<path d="M4 38.5C4 25.9118 4 19.6176 6.21492 14.7121C8.72011 9.16375 13.1637 4.72011 18.7121 2.21492C23.6176 0 29.9118 0 42.5 0C55.0882 0 61.3824 0 66.2879 2.21492C71.8363 4.72011 76.2799 9.16375 78.7851 14.7121C81 19.6176 81 25.9118 81 38.5C81 51.0882 81 57.3824 78.7851 62.2879C76.2799 67.8363 71.8363 72.2799 66.2879 74.7851C61.3824 77 55.0882 77 42.5 77C29.9118 77 23.6176 77 18.7121 74.7851C13.1637 72.2799 8.72011 67.8363 6.21492 62.2879C4 57.3824 4 51.0882 4 38.5Z" fill="#816384"/>
<path d="M4 38.5C4 25.9118 4 19.6176 6.21492 14.7121C8.72011 9.16375 13.1637 4.72011 18.7121 2.21492C23.6176 0 29.9118 0 42.5 0C55.0882 0 61.3824 0 66.2879 2.21492C71.8363 4.72011 76.2799 9.16375 78.7851 14.7121C81 19.6176 81 25.9118 81 38.5C81 51.0882 81 57.3824 78.7851 62.2879C76.2799 67.8363 71.8363 72.2799 66.2879 74.7851C61.3824 77 55.0882 77 42.5 77C29.9118 77 23.6176 77 18.7121 74.7851C13.1637 72.2799 8.72011 67.8363 6.21492 62.2879C4 57.3824 4 51.0882 4 38.5Z" fill="#926EB6"/>
</g>
<path d="M40.1065 57.3977C38.2315 57.3977 36.5601 57.0758 35.0923 56.4318C33.634 55.7879 32.474 54.893 31.6122 53.7472C30.7599 52.5919 30.2959 51.2519 30.2202 49.7273H33.7997C33.8755 50.6648 34.1974 51.4744 34.7656 52.1562C35.3338 52.8286 36.0772 53.3494 36.9957 53.7188C37.9143 54.0881 38.9323 54.2727 40.0497 54.2727C41.2997 54.2727 42.4077 54.0549 43.3736 53.6193C44.3395 53.1837 45.0971 52.5777 45.6463 51.8011C46.1955 51.0246 46.4702 50.125 46.4702 49.1023C46.4702 48.0322 46.205 47.09 45.6747 46.2756C45.1444 45.4517 44.3679 44.8078 43.3452 44.3438C42.3224 43.8797 41.0724 43.6477 39.5952 43.6477H37.2656V40.5227H39.5952C40.7505 40.5227 41.7637 40.3144 42.6349 39.8977C43.5156 39.4811 44.2022 38.8939 44.6946 38.1364C45.1965 37.3788 45.4474 36.4886 45.4474 35.4659C45.4474 34.4811 45.2296 33.6241 44.794 32.8949C44.3584 32.1657 43.7429 31.5975 42.9474 31.1903C42.1615 30.7831 41.2334 30.5795 40.1634 30.5795C39.1596 30.5795 38.2126 30.7642 37.3224 31.1335C36.4418 31.4934 35.7221 32.0189 35.1634 32.7102C34.6046 33.392 34.3016 34.2159 34.2543 35.1818H30.8452C30.902 33.6572 31.3613 32.322 32.223 31.1761C33.0848 30.0208 34.2116 29.1212 35.6037 28.4773C37.0052 27.8333 38.544 27.5114 40.2202 27.5114C42.0194 27.5114 43.563 27.8759 44.8509 28.6051C46.1387 29.3248 47.1283 30.2765 47.8196 31.4602C48.5109 32.6439 48.8565 33.9223 48.8565 35.2955C48.8565 36.9337 48.4257 38.3305 47.5639 39.4858C46.7116 40.6411 45.5516 41.4413 44.0838 41.8864V42.1136C45.9209 42.4167 47.3556 43.1979 48.3878 44.4574C49.42 45.7074 49.9361 47.2557 49.9361 49.1023C49.9361 50.6837 49.5052 52.1042 48.6435 53.3636C47.7912 54.6136 46.6264 55.5985 45.1491 56.3182C43.6719 57.0379 41.991 57.3977 40.1065 57.3977Z" fill="white"/>
<defs>
<filter id="filter0_d_47_10" x="0" y="0" width="85" height="85" filterUnits="userSpaceOnUse" color-interpolation-filters="sRGB">
<feFlood flood-opacity="0" result="BackgroundImageFix"/>
<feColorMatrix in="SourceAlpha" type="matrix" values="0 0 0 0 0 0 0 0 0 0 0 0 0 0 0 0 0 0 127 0" result="hardAlpha"/>
<feOffset dy="4"/>
<feGaussianBlur stdDeviation="2"/>
<feComposite in2="hardAlpha" operator="out"/>
<feColorMatrix type="matrix" values="0 0 0 0 0 0 0 0 0 0 0 0 0 0 0 0 0 0 0.25 0"/>
<feBlend mode="normal" in2="BackgroundImageFix" result="effect1_dropShadow_47_10"/>
<feBlend mode="normal" in="SourceGraphic" in2="effect1_dropShadow_47_10" result="shape"/>
</filter>
</defs>
</svg>
