<svg width="85" height="85" viewBox="0 0 85 85" fill="none" xmlns="http://www.w3.org/2000/svg">
<g filter="url(#filter0_d_47_6)">
<path d="M4 38.5C4 25.9118 4 19.6176 6.21492 14.7121C8.72011 9.16375 13.1637 4.72011 18.7121 2.21492C23.6176 0 29.9118 0 42.5 0C55.0882 0 61.3824 0 66.2879 2.21492C71.8363 4.72011 76.2799 9.16375 78.7851 14.7121C81 19.6176 81 25.9118 81 38.5C81 51.0882 81 57.3824 78.7851 62.2879C76.2799 67.8363 71.8363 72.2799 66.2879 74.7851C61.3824 77 55.0882 77 42.5 77C29.9118 77 23.6176 77 18.7121 74.7851C13.1637 72.2799 8.72011 67.8363 6.21492 62.2879C4 57.3824 4 51.0882 4 38.5Z" fill="#816384"/>
<path d="M4 38.5C4 25.9118 4 19.6176 6.21492 14.7121C8.72011 9.16375 13.1637 4.72011 18.7121 2.21492C23.6176 0 29.9118 0 42.5 0C55.0882 0 61.3824 0 66.2879 2.21492C71.8363 4.72011 76.2799 9.16375 78.7851 14.7121C81 19.6176 81 25.9118 81 38.5C81 51.0882 81 57.3824 78.7851 62.2879C76.2799 67.8363 71.8363 72.2799 66.2879 74.7851C61.3824 77 55.0882 77 42.5 77C29.9118 77 23.6176 77 18.7121 74.7851C13.1637 72.2799 8.72011 67.8363 6.21492 62.2879C4 57.3824 4 51.0882 4 38.5Z" fill="#816384"/>
<path d="M4 38.5C4 25.9118 4 19.6176 6.21492 14.7121C8.72011 9.16375 13.1637 4.72011 18.7121 2.21492C23.6176 0 29.9118 0 42.5 0C55.0882 0 61.3824 0 66.2879 2.21492C71.8363 4.72011 76.2799 9.16375 78.7851 14.7121C81 19.6176 81 25.9118 81 38.5C81 51.0882 81 57.3824 78.7851 62.2879C76.2799 67.8363 71.8363 72.2799 66.2879 74.7851C61.3824 77 55.0882 77 42.5 77C29.9118 77 23.6176 77 18.7121 74.7851C13.1637 72.2799 8.72011 67.8363 6.21492 62.2879C4 57.3824 4 51.0882 4 38.5Z" fill="#926EB6"/>
</g>
<path d="M42.19 55.3977C40.9968 55.3788 39.8036 55.1515 38.6104 54.7159C37.4173 54.2803 36.3282 53.5464 35.3434 52.5142C34.3585 51.4725 33.5678 50.0663 32.9712 48.2955C32.3746 46.5152 32.0763 44.2803 32.0763 41.5909C32.0763 39.0152 32.3178 36.733 32.8008 34.7443C33.2837 32.7462 33.9845 31.0653 34.9031 29.7017C35.8216 28.3286 36.9296 27.2869 38.2269 26.5767C39.5337 25.8665 41.0063 25.5114 42.6445 25.5114C44.2733 25.5114 45.7222 25.8381 46.9911 26.4915C48.2695 27.1354 49.3112 28.035 50.1161 29.1903C50.921 30.3456 51.4419 31.6761 51.6786 33.1818H48.2127C47.8907 31.875 47.2657 30.7907 46.3377 29.929C45.4097 29.0672 44.1786 28.6364 42.6445 28.6364C40.3907 28.6364 38.6152 29.6165 37.3178 31.5767C36.0299 33.5369 35.3813 36.2879 35.3718 39.8295H35.5991C36.1294 39.0246 36.7591 38.3381 37.4883 37.7699C38.2269 37.1922 39.0413 36.7472 39.9315 36.4347C40.8216 36.1222 41.7638 35.9659 42.7582 35.9659C44.4248 35.9659 45.9495 36.3826 47.332 37.2159C48.7146 38.0398 49.8226 39.1809 50.6559 40.6392C51.4892 42.0881 51.9059 43.75 51.9059 45.625C51.9059 47.4242 51.5034 49.072 50.6985 50.5682C49.8936 52.0549 48.762 53.2386 47.3036 54.1193C45.8548 54.9905 44.1502 55.4167 42.19 55.3977ZM42.19 52.2727C43.3832 52.2727 44.4532 51.9744 45.4002 51.3778C46.3567 50.7812 47.1095 49.9811 47.6587 48.9773C48.2174 47.9735 48.4968 46.8561 48.4968 45.625C48.4968 44.4223 48.2269 43.3286 47.6871 42.3438C47.1568 41.3494 46.4229 40.5587 45.4854 39.9716C44.5574 39.3845 43.4968 39.0909 42.3036 39.0909C41.404 39.0909 40.5659 39.2708 39.7894 39.6307C39.0129 39.9811 38.3311 40.464 37.744 41.0795C37.1663 41.6951 36.7118 42.4006 36.3803 43.196C36.0489 43.982 35.8832 44.8106 35.8832 45.6818C35.8832 46.8371 36.1531 47.9167 36.6928 48.9205C37.2421 49.9242 37.9902 50.7339 38.9371 51.3494C39.8936 51.965 40.9779 52.2727 42.19 52.2727Z" fill="white"/>
<defs>
<filter id="filter0_d_47_6" x="0" y="0" width="85" height="85" filterUnits="userSpaceOnUse" color-interpolation-filters="sRGB">
<feFlood flood-opacity="0" result="BackgroundImageFix"/>
<feColorMatrix in="SourceAlpha" type="matrix" values="0 0 0 0 0 0 0 0 0 0 0 0 0 0 0 0 0 0 127 0" result="hardAlpha"/>
<feOffset dy="4"/>
<feGaussianBlur stdDeviation="2"/>
<feComposite in2="hardAlpha" operator="out"/>
<feColorMatrix type="matrix" values="0 0 0 0 0 0 0 0 0 0 0 0 0 0 0 0 0 0 0.25 0"/>
<feBlend mode="normal" in2="BackgroundImageFix" result="effect1_dropShadow_47_6"/>
<feBlend mode="normal" in="SourceGraphic" in2="effect1_dropShadow_47_6" result="shape"/>
</filter>
</defs>
</svg>
