<svg width="85" height="85" viewBox="0 0 85 85" fill="none" xmlns="http://www.w3.org/2000/svg">
<g filter="url(#filter0_d_45_10)">
<path d="M4 38.5C4 25.9118 4 19.6176 6.21492 14.7121C8.72011 9.16375 13.1637 4.72011 18.7121 2.21492C23.6176 0 29.9118 0 42.5 0V0C55.0882 0 61.3824 0 66.2879 2.21492C71.8363 4.72011 76.2799 9.16375 78.7851 14.7121C81 19.6176 81 25.9118 81 38.5V38.5C81 51.0882 81 57.3824 78.7851 62.2879C76.2799 67.8363 71.8363 72.2799 66.2879 74.7851C61.3824 77 55.0882 77 42.5 77V77C29.9118 77 23.6176 77 18.7121 74.7851C13.1637 72.2799 8.72011 67.8363 6.21492 62.2879C4 57.3824 4 51.0882 4 38.5V38.5Z" fill="#816384"/>
<path d="M4 38.5C4 25.9118 4 19.6176 6.21492 14.7121C8.72011 9.16375 13.1637 4.72011 18.7121 2.21492C23.6176 0 29.9118 0 42.5 0V0C55.0882 0 61.3824 0 66.2879 2.21492C71.8363 4.72011 76.2799 9.16375 78.7851 14.7121C81 19.6176 81 25.9118 81 38.5V38.5C81 51.0882 81 57.3824 78.7851 62.2879C76.2799 67.8363 71.8363 72.2799 66.2879 74.7851C61.3824 77 55.0882 77 42.5 77V77C29.9118 77 23.6176 77 18.7121 74.7851C13.1637 72.2799 8.72011 67.8363 6.21492 62.2879C4 57.3824 4 51.0882 4 38.5V38.5Z" fill="#816384"/>
<path d="M4 38.5C4 25.9118 4 19.6176 6.21492 14.7121C8.72011 9.16375 13.1637 4.72011 18.7121 2.21492C23.6176 0 29.9118 0 42.5 0V0C55.0882 0 61.3824 0 66.2879 2.21492C71.8363 4.72011 76.2799 9.16375 78.7851 14.7121C81 19.6176 81 25.9118 81 38.5V38.5C81 51.0882 81 57.3824 78.7851 62.2879C76.2799 67.8363 71.8363 72.2799 66.2879 74.7851C61.3824 77 55.0882 77 42.5 77V77C29.9118 77 23.6176 77 18.7121 74.7851C13.1637 72.2799 8.72011 67.8363 6.21492 62.2879C4 57.3824 4 51.0882 4 38.5V38.5Z" fill="#9D67D3"/>
</g>
<path d="M50.7858 39H48.1437C47.9875 38.2401 47.714 37.5724 47.3234 36.9972C46.9399 36.4219 46.4711 35.9389 45.9172 35.5483C45.3703 35.1506 44.7631 34.8523 44.0954 34.6534C43.4278 34.4545 42.7318 34.3551 42.0074 34.3551C40.6863 34.3551 39.4896 34.6889 38.4172 35.3565C37.3518 36.0241 36.5031 37.0078 35.871 38.3075C35.246 39.6072 34.9335 41.2017 34.9335 43.0909C34.9335 44.9801 35.246 46.5746 35.871 47.8743C36.5031 49.174 37.3518 50.1577 38.4172 50.8253C39.4896 51.4929 40.6863 51.8267 42.0074 51.8267C42.7318 51.8267 43.4278 51.7273 44.0954 51.5284C44.7631 51.3295 45.3703 51.0348 45.9172 50.6442C46.4711 50.2464 46.9399 49.7599 47.3234 49.1847C47.714 48.6023 47.9875 47.9347 48.1437 47.1818H50.7858C50.5869 48.2969 50.2247 49.2947 49.6991 50.1754C49.1736 51.0561 48.5202 51.8054 47.7389 52.4233C46.9577 53.0341 46.0805 53.4993 45.1075 53.8189C44.1416 54.1385 43.1082 54.2983 42.0074 54.2983C40.1466 54.2983 38.4917 53.8438 37.0429 52.9347C35.594 52.0256 34.4541 50.733 33.6231 49.0568C32.7922 47.3807 32.3767 45.392 32.3767 43.0909C32.3767 40.7898 32.7922 38.8011 33.6231 37.125C34.4541 35.4489 35.594 34.1562 37.0429 33.2472C38.4917 32.3381 40.1466 31.8835 42.0074 31.8835C43.1082 31.8835 44.1416 32.0433 45.1075 32.3629C46.0805 32.6825 46.9577 33.1513 47.7389 33.7692C48.5202 34.38 49.1736 35.1257 49.6991 36.0064C50.2247 36.88 50.5869 37.8778 50.7858 39Z" fill="black"/>
<defs>
<filter id="filter0_d_45_10" x="0" y="0" width="85" height="85" filterUnits="userSpaceOnUse" color-interpolation-filters="sRGB">
<feFlood flood-opacity="0" result="BackgroundImageFix"/>
<feColorMatrix in="SourceAlpha" type="matrix" values="0 0 0 0 0 0 0 0 0 0 0 0 0 0 0 0 0 0 127 0" result="hardAlpha"/>
<feOffset dy="4"/>
<feGaussianBlur stdDeviation="2"/>
<feComposite in2="hardAlpha" operator="out"/>
<feColorMatrix type="matrix" values="0 0 0 0 0 0 0 0 0 0 0 0 0 0 0 0 0 0 0.25 0"/>
<feBlend mode="normal" in2="BackgroundImageFix" result="effect1_dropShadow_45_10"/>
<feBlend mode="normal" in="SourceGraphic" in2="effect1_dropShadow_45_10" result="shape"/>
</filter>
</defs>
</svg>
