<svg width="85" height="99" viewBox="0 0 85 99" fill="none" xmlns="http://www.w3.org/2000/svg">
<g filter="url(#filter0_d_45_2)">
<path d="M4 52.5C4 39.9118 4 33.6176 6.21492 28.7121C8.72011 23.1637 13.1637 18.7201 18.7121 16.2149C23.6176 14 29.9118 14 42.5 14V14C55.0882 14 61.3824 14 66.2879 16.2149C71.8363 18.7201 76.2799 23.1637 78.7851 28.7121C81 33.6176 81 39.9118 81 52.5V52.5C81 65.0882 81 71.3824 78.7851 76.2879C76.2799 81.8363 71.8363 86.2799 66.2879 88.7851C61.3824 91 55.0882 91 42.5 91V91C29.9118 91 23.6176 91 18.7121 88.7851C13.1637 86.2799 8.72011 81.8363 6.21492 76.2879C4 71.3824 4 65.0882 4 52.5V52.5Z" fill="#816384"/>
<path d="M4 52.5C4 39.9118 4 33.6176 6.21492 28.7121C8.72011 23.1637 13.1637 18.7201 18.7121 16.2149C23.6176 14 29.9118 14 42.5 14V14C55.0882 14 61.3824 14 66.2879 16.2149C71.8363 18.7201 76.2799 23.1637 78.7851 28.7121C81 33.6176 81 39.9118 81 52.5V52.5C81 65.0882 81 71.3824 78.7851 76.2879C76.2799 81.8363 71.8363 86.2799 66.2879 88.7851C61.3824 91 55.0882 91 42.5 91V91C29.9118 91 23.6176 91 18.7121 88.7851C13.1637 86.2799 8.72011 81.8363 6.21492 76.2879C4 71.3824 4 65.0882 4 52.5V52.5Z" fill="#816384"/>
<path d="M4 52.5C4 39.9118 4 33.6176 6.21492 28.7121C8.72011 23.1637 13.1637 18.7201 18.7121 16.2149C23.6176 14 29.9118 14 42.5 14V14C55.0882 14 61.3824 14 66.2879 16.2149C71.8363 18.7201 76.2799 23.1637 78.7851 28.7121C81 33.6176 81 39.9118 81 52.5V52.5C81 65.0882 81 71.3824 78.7851 76.2879C76.2799 81.8363 71.8363 86.2799 66.2879 88.7851C61.3824 91 55.0882 91 42.5 91V91C29.9118 91 23.6176 91 18.7121 88.7851C13.1637 86.2799 8.72011 81.8363 6.21492 76.2879C4 71.3824 4 65.0882 4 52.5V52.5Z" fill="#9D67D3"/>
</g>
<g style="mix-blend-mode:luminosity" filter="url(#filter1_i_45_2)">
<path d="M50.2858 50H47.6437C47.4875 49.2401 47.214 48.5724 46.8234 47.9972C46.4399 47.4219 45.9711 46.9389 45.4172 46.5483C44.8703 46.1506 44.2631 45.8523 43.5954 45.6534C42.9278 45.4545 42.2318 45.3551 41.5074 45.3551C40.1863 45.3551 38.9896 45.6889 37.9172 46.3565C36.8518 47.0241 36.0031 48.0078 35.371 49.3075C34.746 50.6072 34.4335 52.2017 34.4335 54.0909C34.4335 55.9801 34.746 57.5746 35.371 58.8743C36.0031 60.174 36.8518 61.1577 37.9172 61.8253C38.9896 62.4929 40.1863 62.8267 41.5074 62.8267C42.2318 62.8267 42.9278 62.7273 43.5954 62.5284C44.2631 62.3295 44.8703 62.0348 45.4172 61.6442C45.9711 61.2464 46.4399 60.7599 46.8234 60.1847C47.214 59.6023 47.4875 58.9347 47.6437 58.1818H50.2858C50.0869 59.2969 49.7247 60.2947 49.1991 61.1754C48.6736 62.0561 48.0202 62.8054 47.2389 63.4233C46.4577 64.0341 45.5805 64.4993 44.6075 64.8189C43.6416 65.1385 42.6082 65.2983 41.5074 65.2983C39.6466 65.2983 37.9917 64.8438 36.5429 63.9347C35.094 63.0256 33.9541 61.733 33.1231 60.0568C32.2922 58.3807 31.8767 56.392 31.8767 54.0909C31.8767 51.7898 32.2922 49.8011 33.1231 48.125C33.9541 46.4489 35.094 45.1562 36.5429 44.2472C37.9917 43.3381 39.6466 42.8835 41.5074 42.8835C42.6082 42.8835 43.6416 43.0433 44.6075 43.3629C45.5805 43.6825 46.4577 44.1513 47.2389 44.7692C48.0202 45.38 48.6736 46.1257 49.1991 47.0064C49.7247 47.88 50.0869 48.8778 50.2858 50Z" fill="black"/>
</g>
<defs>
<filter id="filter0_d_45_2" x="0" y="14" width="85" height="85" filterUnits="userSpaceOnUse" color-interpolation-filters="sRGB">
<feFlood flood-opacity="0" result="BackgroundImageFix"/>
<feColorMatrix in="SourceAlpha" type="matrix" values="0 0 0 0 0 0 0 0 0 0 0 0 0 0 0 0 0 0 127 0" result="hardAlpha"/>
<feOffset dy="4"/>
<feGaussianBlur stdDeviation="2"/>
<feComposite in2="hardAlpha" operator="out"/>
<feColorMatrix type="matrix" values="0 0 0 0 0 0 0 0 0 0 0 0 0 0 0 0 0 0 0.25 0"/>
<feBlend mode="normal" in2="BackgroundImageFix" result="effect1_dropShadow_45_2"/>
<feBlend mode="normal" in="SourceGraphic" in2="effect1_dropShadow_45_2" result="shape"/>
</filter>
<filter id="filter1_i_45_2" x="31.8767" y="42.8835" width="18.4091" height="26.4147" filterUnits="userSpaceOnUse" color-interpolation-filters="sRGB">
<feFlood flood-opacity="0" result="BackgroundImageFix"/>
<feBlend mode="normal" in="SourceGraphic" in2="BackgroundImageFix" result="shape"/>
<feColorMatrix in="SourceAlpha" type="matrix" values="0 0 0 0 0 0 0 0 0 0 0 0 0 0 0 0 0 0 127 0" result="hardAlpha"/>
<feOffset dy="4"/>
<feGaussianBlur stdDeviation="2"/>
<feComposite in2="hardAlpha" operator="arithmetic" k2="-1" k3="1"/>
<feColorMatrix type="matrix" values="0 0 0 0 0 0 0 0 0 0 0 0 0 0 0 0 0 0 0.25 0"/>
<feBlend mode="normal" in2="shape" result="effect1_innerShadow_45_2"/>
</filter>
</defs>
</svg>
