<svg width="85" height="85" viewBox="0 0 85 85" fill="none" xmlns="http://www.w3.org/2000/svg">
<g filter="url(#filter0_d_47_13)">
<path d="M4 38.5C4 25.9118 4 19.6176 6.21492 14.7121C8.72011 9.16375 13.1637 4.72011 18.7121 2.21492C23.6176 0 29.9118 0 42.5 0C55.0882 0 61.3824 0 66.2879 2.21492C71.8363 4.72011 76.2799 9.16375 78.7851 14.7121C81 19.6176 81 25.9118 81 38.5C81 51.0882 81 57.3824 78.7851 62.2879C76.2799 67.8363 71.8363 72.2799 66.2879 74.7851C61.3824 77 55.0882 77 42.5 77C29.9118 77 23.6176 77 18.7121 74.7851C13.1637 72.2799 8.72011 67.8363 6.21492 62.2879C4 57.3824 4 51.0882 4 38.5Z" fill="#816384"/>
<path d="M4 38.5C4 25.9118 4 19.6176 6.21492 14.7121C8.72011 9.16375 13.1637 4.72011 18.7121 2.21492C23.6176 0 29.9118 0 42.5 0C55.0882 0 61.3824 0 66.2879 2.21492C71.8363 4.72011 76.2799 9.16375 78.7851 14.7121C81 19.6176 81 25.9118 81 38.5C81 51.0882 81 57.3824 78.7851 62.2879C76.2799 67.8363 71.8363 72.2799 66.2879 74.7851C61.3824 77 55.0882 77 42.5 77C29.9118 77 23.6176 77 18.7121 74.7851C13.1637 72.2799 8.72011 67.8363 6.21492 62.2879C4 57.3824 4 51.0882 4 38.5Z" fill="#816384"/>
<path d="M4 38.5C4 25.9118 4 19.6176 6.21492 14.7121C8.72011 9.16375 13.1637 4.72011 18.7121 2.21492C23.6176 0 29.9118 0 42.5 0C55.0882 0 61.3824 0 66.2879 2.21492C71.8363 4.72011 76.2799 9.16375 78.7851 14.7121C81 19.6176 81 25.9118 81 38.5C81 51.0882 81 57.3824 78.7851 62.2879C76.2799 67.8363 71.8363 72.2799 66.2879 74.7851C61.3824 77 55.0882 77 42.5 77C29.9118 77 23.6176 77 18.7121 74.7851C13.1637 72.2799 8.72011 67.8363 6.21492 62.2879C4 57.3824 4 51.0882 4 38.5Z" fill="#E4A8CC"/>
</g>
<path d="M41.4073 50.0114V31.2614H44.5891V50.0114H41.4073ZM33.6232 42.2273V39.0455H52.3732V42.2273H33.6232Z" fill="black"/>
<defs>
<filter id="filter0_d_47_13" x="0" y="0" width="85" height="85" filterUnits="userSpaceOnUse" color-interpolation-filters="sRGB">
<feFlood flood-opacity="0" result="BackgroundImageFix"/>
<feColorMatrix in="SourceAlpha" type="matrix" values="0 0 0 0 0 0 0 0 0 0 0 0 0 0 0 0 0 0 127 0" result="hardAlpha"/>
<feOffset dy="4"/>
<feGaussianBlur stdDeviation="2"/>
<feComposite in2="hardAlpha" operator="out"/>
<feColorMatrix type="matrix" values="0 0 0 0 0 0 0 0 0 0 0 0 0 0 0 0 0 0 0.25 0"/>
<feBlend mode="normal" in2="BackgroundImageFix" result="effect1_dropShadow_47_13"/>
<feBlend mode="normal" in="SourceGraphic" in2="effect1_dropShadow_47_13" result="shape"/>
</filter>
</defs>
</svg>
