<svg width="85" height="85" viewBox="0 0 85 85" fill="none" xmlns="http://www.w3.org/2000/svg">
<g filter="url(#filter0_d_46_25)">
<path d="M4 38.5C4 25.9118 4 19.6176 6.21492 14.7121C8.72011 9.16375 13.1637 4.72011 18.7121 2.21492C23.6176 0 29.9118 0 42.5 0V0C55.0882 0 61.3824 0 66.2879 2.21492C71.8363 4.72011 76.2799 9.16375 78.7851 14.7121C81 19.6176 81 25.9118 81 38.5V38.5C81 51.0882 81 57.3824 78.7851 62.2879C76.2799 67.8363 71.8363 72.2799 66.2879 74.7851C61.3824 77 55.0882 77 42.5 77V77C29.9118 77 23.6176 77 18.7121 74.7851C13.1637 72.2799 8.72011 67.8363 6.21492 62.2879C4 57.3824 4 51.0882 4 38.5V38.5Z" fill="#816384"/>
<path d="M4 38.5C4 25.9118 4 19.6176 6.21492 14.7121C8.72011 9.16375 13.1637 4.72011 18.7121 2.21492C23.6176 0 29.9118 0 42.5 0V0C55.0882 0 61.3824 0 66.2879 2.21492C71.8363 4.72011 76.2799 9.16375 78.7851 14.7121C81 19.6176 81 25.9118 81 38.5V38.5C81 51.0882 81 57.3824 78.7851 62.2879C76.2799 67.8363 71.8363 72.2799 66.2879 74.7851C61.3824 77 55.0882 77 42.5 77V77C29.9118 77 23.6176 77 18.7121 74.7851C13.1637 72.2799 8.72011 67.8363 6.21492 62.2879C4 57.3824 4 51.0882 4 38.5V38.5Z" fill="#816384"/>
<path d="M4 38.5C4 25.9118 4 19.6176 6.21492 14.7121C8.72011 9.16375 13.1637 4.72011 18.7121 2.21492C23.6176 0 29.9118 0 42.5 0V0C55.0882 0 61.3824 0 66.2879 2.21492C71.8363 4.72011 76.2799 9.16375 78.7851 14.7121C81 19.6176 81 25.9118 81 38.5V38.5C81 51.0882 81 57.3824 78.7851 62.2879C76.2799 67.8363 71.8363 72.2799 66.2879 74.7851C61.3824 77 55.0882 77 42.5 77V77C29.9118 77 23.6176 77 18.7121 74.7851C13.1637 72.2799 8.72011 67.8363 6.21492 62.2879C4 57.3824 4 51.0882 4 38.5V38.5Z" fill="#9D67D3"/>
</g>
<path d="M43.6932 47.9091V46.7585C43.6932 45.9631 43.8565 45.2351 44.1832 44.5746C44.517 43.907 45 43.3743 45.6321 42.9766C46.2713 42.5717 47.0455 42.3693 47.9545 42.3693C48.8778 42.3693 49.652 42.5717 50.277 42.9766C50.902 43.3743 51.3743 43.907 51.6939 44.5746C52.0135 45.2351 52.1733 45.9631 52.1733 46.7585V47.9091C52.1733 48.7045 52.0099 49.4361 51.6832 50.1037C51.3636 50.7642 50.8878 51.2969 50.2557 51.7017C49.6307 52.0994 48.8636 52.2983 47.9545 52.2983C47.0313 52.2983 46.2536 52.0994 45.6214 51.7017C44.9893 51.2969 44.5099 50.7642 44.1832 50.1037C43.8565 49.4361 43.6932 48.7045 43.6932 47.9091ZM45.8665 46.7585V47.9091C45.8665 48.5696 46.0227 49.1626 46.3352 49.6882C46.6477 50.2067 47.1875 50.4659 47.9545 50.4659C48.7003 50.4659 49.2259 50.2067 49.5312 49.6882C49.8438 49.1626 50 48.5696 50 47.9091V46.7585C50 46.098 49.8509 45.5085 49.5526 44.9901C49.2543 44.4645 48.7216 44.2017 47.9545 44.2017C47.2088 44.2017 46.6726 44.4645 46.3459 44.9901C46.0263 45.5085 45.8665 46.098 45.8665 46.7585ZM32.8267 35.4233V34.2727C32.8267 33.4773 32.9901 32.7493 33.3168 32.0888C33.6506 31.4212 34.1335 30.8885 34.7656 30.4908C35.4048 30.0859 36.179 29.8835 37.0881 29.8835C38.0114 29.8835 38.7855 30.0859 39.4105 30.4908C40.0355 30.8885 40.5078 31.4212 40.8274 32.0888C41.147 32.7493 41.3068 33.4773 41.3068 34.2727V35.4233C41.3068 36.2187 41.1435 36.9503 40.8168 37.6179C40.4972 38.2784 40.0213 38.8111 39.3892 39.2159C38.7642 39.6136 37.9972 39.8125 37.0881 39.8125C36.1648 39.8125 35.3871 39.6136 34.755 39.2159C34.1229 38.8111 33.6435 38.2784 33.3168 37.6179C32.9901 36.9503 32.8267 36.2187 32.8267 35.4233ZM35 34.2727V35.4233C35 36.0838 35.1562 36.6768 35.4688 37.2024C35.7812 37.7209 36.321 37.9801 37.0881 37.9801C37.8338 37.9801 38.3594 37.7209 38.6648 37.2024C38.9773 36.6768 39.1335 36.0838 39.1335 35.4233V34.2727C39.1335 33.6122 38.9844 33.0227 38.6861 32.5043C38.3878 31.9787 37.8551 31.7159 37.0881 31.7159C36.3423 31.7159 35.8061 31.9787 35.4794 32.5043C35.1598 33.0227 35 33.6122 35 34.2727ZM33.6364 52L48.6364 30.1818H51.0653L36.0653 52H33.6364Z" fill="black"/>
<defs>
<filter id="filter0_d_46_25" x="0" y="0" width="85" height="85" filterUnits="userSpaceOnUse" color-interpolation-filters="sRGB">
<feFlood flood-opacity="0" result="BackgroundImageFix"/>
<feColorMatrix in="SourceAlpha" type="matrix" values="0 0 0 0 0 0 0 0 0 0 0 0 0 0 0 0 0 0 127 0" result="hardAlpha"/>
<feOffset dy="4"/>
<feGaussianBlur stdDeviation="2"/>
<feComposite in2="hardAlpha" operator="out"/>
<feColorMatrix type="matrix" values="0 0 0 0 0 0 0 0 0 0 0 0 0 0 0 0 0 0 0.25 0"/>
<feBlend mode="normal" in2="BackgroundImageFix" result="effect1_dropShadow_46_25"/>
<feBlend mode="normal" in="SourceGraphic" in2="effect1_dropShadow_46_25" result="shape"/>
</filter>
</defs>
</svg>
