<svg width="85" height="85" viewBox="0 0 85 85" fill="none" xmlns="http://www.w3.org/2000/svg">
<g filter="url(#filter0_d_47_12)">
<path d="M4 38.5C4 25.9118 4 19.6176 6.21492 14.7121C8.72011 9.16375 13.1637 4.72011 18.7121 2.21492C23.6176 0 29.9118 0 42.5 0C55.0882 0 61.3824 0 66.2879 2.21492C71.8363 4.72011 76.2799 9.16375 78.7851 14.7121C81 19.6176 81 25.9118 81 38.5C81 51.0882 81 57.3824 78.7851 62.2879C76.2799 67.8363 71.8363 72.2799 66.2879 74.7851C61.3824 77 55.0882 77 42.5 77C29.9118 77 23.6176 77 18.7121 74.7851C13.1637 72.2799 8.72011 67.8363 6.21492 62.2879C4 57.3824 4 51.0882 4 38.5Z" fill="#816384"/>
<path d="M4 38.5C4 25.9118 4 19.6176 6.21492 14.7121C8.72011 9.16375 13.1637 4.72011 18.7121 2.21492C23.6176 0 29.9118 0 42.5 0C55.0882 0 61.3824 0 66.2879 2.21492C71.8363 4.72011 76.2799 9.16375 78.7851 14.7121C81 19.6176 81 25.9118 81 38.5C81 51.0882 81 57.3824 78.7851 62.2879C76.2799 67.8363 71.8363 72.2799 66.2879 74.7851C61.3824 77 55.0882 77 42.5 77C29.9118 77 23.6176 77 18.7121 74.7851C13.1637 72.2799 8.72011 67.8363 6.21492 62.2879C4 57.3824 4 51.0882 4 38.5Z" fill="#816384"/>
<path d="M4 38.5C4 25.9118 4 19.6176 6.21492 14.7121C8.72011 9.16375 13.1637 4.72011 18.7121 2.21492C23.6176 0 29.9118 0 42.5 0C55.0882 0 61.3824 0 66.2879 2.21492C71.8363 4.72011 76.2799 9.16375 78.7851 14.7121C81 19.6176 81 25.9118 81 38.5C81 51.0882 81 57.3824 78.7851 62.2879C76.2799 67.8363 71.8363 72.2799 66.2879 74.7851C61.3824 77 55.0882 77 42.5 77C29.9118 77 23.6176 77 18.7121 74.7851C13.1637 72.2799 8.72011 67.8363 6.21492 62.2879C4 57.3824 4 51.0882 4 38.5Z" fill="#926EB6"/>
</g>
<path d="M42.0036 48.2273C41.3028 48.2273 40.7015 47.9763 40.1996 47.4744C39.6977 46.9725 39.4467 46.3712 39.4467 45.6705C39.4467 44.9697 39.6977 44.3684 40.1996 43.8665C40.7015 43.3646 41.3028 43.1136 42.0036 43.1136C42.7043 43.1136 43.3056 43.3646 43.8075 43.8665C44.3094 44.3684 44.5604 44.9697 44.5604 45.6705C44.5604 46.1345 44.442 46.5606 44.2053 46.9489C43.978 47.3371 43.6702 47.6496 43.282 47.8864C42.9032 48.1136 42.477 48.2273 42.0036 48.2273Z" fill="white"/>
<defs>
<filter id="filter0_d_47_12" x="0" y="0" width="85" height="85" filterUnits="userSpaceOnUse" color-interpolation-filters="sRGB">
<feFlood flood-opacity="0" result="BackgroundImageFix"/>
<feColorMatrix in="SourceAlpha" type="matrix" values="0 0 0 0 0 0 0 0 0 0 0 0 0 0 0 0 0 0 127 0" result="hardAlpha"/>
<feOffset dy="4"/>
<feGaussianBlur stdDeviation="2"/>
<feComposite in2="hardAlpha" operator="out"/>
<feColorMatrix type="matrix" values="0 0 0 0 0 0 0 0 0 0 0 0 0 0 0 0 0 0 0.25 0"/>
<feBlend mode="normal" in2="BackgroundImageFix" result="effect1_dropShadow_47_12"/>
<feBlend mode="normal" in="SourceGraphic" in2="effect1_dropShadow_47_12" result="shape"/>
</filter>
</defs>
</svg>
